<?xml version="1.0" encoding="UTF-8"?>
<svg id="Layer_2" data-name="Layer 2" xmlns="http://www.w3.org/2000/svg" viewBox="0 0 510.74 145.07">
  <defs>
    <style>
      .cls-1 {
        fill: none;
        stroke: #000;
        stroke-miterlimit: 10;
        stroke-width: .5px;
      }
    </style>
  </defs>
  <g id="Layer_1-2" data-name="Layer 1">
    <g>
      <path class="cls-1" d="M24.61.25h461.53c13.44,0,24.36,10.91,24.36,24.36v19.77c0,41.35-33.57,74.93-74.93,74.93H75.18C33.82,119.31.25,85.73.25,44.38v-19.77C.25,11.16,11.16.25,24.61.25Z"/>
      <g>
        <rect class="cls-1" x="56.94" y="64.6" width="396.85" height="41.1" rx="20.55" ry="20.55"/>
        <rect class="cls-1" x="135.6" y="82.31" width="239.53" height="5.67"/>
      </g>
      <rect class="cls-1" x="55.53" y="3.65" width="399.69" height="29.76" rx="14.88" ry="14.88"/>
      <g>
        <path class="cls-1" d="M167.39,43.02c.89,1.6,1.23,3.39,1.23,6.2,0,2.55-.39,4.41-1.23,5.94-1,1.87-2.84,2.97-4.97,2.97s-3.94-1.1-4.94-2.97c-.87-1.58-1.23-3.36-1.23-6.04s.37-4.57,1.23-6.1c1.02-1.87,2.86-2.94,4.94-2.94s3.94,1.08,4.97,2.94ZM159.85,49.09c0,3.89.89,5.89,2.6,5.89s2.58-2,2.58-5.81-.87-5.94-2.6-5.94-2.58,2-2.58,5.86Z"/>
        <path class="cls-1" d="M186.46,57.79h-3.76v-12.01h-4.62v-2.42c3.49-.03,4.49-.6,5.12-2.92h3.26v17.34Z"/>
        <path class="cls-1" d="M209.97,57.79h-12.51c.42-3.44,1.45-4.86,6.17-8.46,1.73-1.34,2.47-2.47,2.47-3.73,0-1.37-.95-2.29-2.34-2.29-.97,0-1.76.47-2.15,1.29-.21.45-.32.97-.37,2h-3.49c.05-1.81.34-3,1-3.99,1.1-1.68,2.81-2.52,5.15-2.52,3.63,0,6.1,2.29,6.1,5.6,0,1.66-.6,3-2,4.34-.66.63-1.16,1-3.55,2.73-1.29.92-1.73,1.31-2.15,1.89h7.67v3.15Z"/>
        <path class="cls-1" d="M222.9,47.36c.58.03.68.03.97.03,1.79,0,2.81-.81,2.81-2.23,0-1.23-.92-2.08-2.23-2.08-.92,0-1.71.42-2.13,1.1-.26.42-.34.87-.34,1.79h-3.49c.08-3.78,2.23-5.89,5.99-5.89,3.36,0,5.7,2,5.7,4.86,0,1.55-.66,2.68-2.02,3.6,1.71.79,2.47,1.97,2.47,3.89,0,3.39-2.55,5.7-6.25,5.7-3.89,0-6.17-2.29-6.23-6.2h3.55c.03,1.02.13,1.52.45,2,.47.74,1.23,1.13,2.18,1.13,1.5,0,2.44-1,2.44-2.58,0-1.66-.92-2.47-2.81-2.47-.34,0-.58,0-1.05.03v-2.68Z"/>
        <path class="cls-1" d="M239.03,54.13v-3.94l5.75-9.75h4.7v10.72h1.97v2.97h-1.97v3.65h-3.63v-3.65h-6.83ZM245.86,47.67c0-.68,0-1.39.03-2.13,0-.58,0-.84.05-1.34-.26.42-.5.81-.74,1.23-.26.45-.53.92-.55.95-.16.32-.34.66-.53.97l-2.21,3.81h3.94v-3.49Z"/>
        <path class="cls-1" d="M263.88,46.7c.95-.34,1.68-.47,2.65-.47,3.44,0,5.7,2.29,5.7,5.78,0,3.73-2.44,6.12-6.31,6.12-3.55,0-5.7-1.89-6.07-5.26h3.78c.18,1.39,1.02,2.18,2.31,2.18,1.55,0,2.55-1.21,2.55-3.02s-.95-2.84-2.47-2.84c-.79,0-1.39.26-2.02.84h-3.63l1.08-9.59h9.93v3.07h-7.15l-.37,3.18Z"/>
        <path class="cls-1" d="M288.86,44.97c-.24-1.47-.89-2.18-2.02-2.18-1.81,0-2.68,1.52-2.76,4.76,1.02-.81,1.97-1.13,3.23-1.13,3.21,0,5.33,2.26,5.33,5.73s-2.31,5.99-5.81,5.99c-4.23,0-6.44-3.07-6.44-8.96s2.23-9.09,6.57-9.09c3.07,0,4.99,1.76,5.36,4.89h-3.47ZM284.37,52.27c0,1.84.89,2.97,2.39,2.97s2.39-1.13,2.39-2.92c0-1.92-.89-3.02-2.39-3.02s-2.39,1.13-2.39,2.97Z"/>
        <path class="cls-1" d="M313.14,43.47c-3.57,2.92-6.2,9.01-6.15,14.32h-4.15c.21-4.97,2.23-9.72,5.96-14.11h-7.8v-3.23h12.14v3.02Z"/>
        <path class="cls-1" d="M333.74,52.69c0,3.23-2.47,5.44-6.07,5.44s-6.1-2.21-6.1-5.44c0-2.05.95-3.49,2.86-4.39-1.58-.74-2.34-1.94-2.34-3.6,0-2.71,2.29-4.62,5.57-4.62s5.54,1.92,5.54,4.62c0,1.66-.79,2.86-2.34,3.6,1.92.89,2.86,2.34,2.86,4.39ZM325.06,52.45c0,1.58,1.08,2.71,2.6,2.71s2.57-1.13,2.57-2.68-1.05-2.73-2.6-2.73-2.58,1.13-2.58,2.71ZM325.59,44.97c0,1.23.84,2.08,2.08,2.08s2.05-.84,2.05-2.05c0-1.29-.81-2.1-2.08-2.1s-2.05.84-2.05,2.08Z"/>
        <path class="cls-1" d="M345.79,53.27c.24,1.47.84,2.13,2.02,2.13,1.76,0,2.71-1.63,2.73-4.65-1.1.79-1.97,1.1-3.15,1.1-3.21,0-5.41-2.36-5.41-5.81s2.37-5.96,5.83-5.96c4.18,0,6.44,3.13,6.44,8.96s-2.13,9.09-6.44,9.09c-3.18,0-4.97-1.58-5.52-4.86h3.5ZM345.48,45.96c0,1.81.95,3,2.39,3s2.37-1.18,2.37-2.97-.92-3.02-2.39-3.02-2.36,1.18-2.36,3Z"/>
      </g>
      <g>
        <rect class="cls-1" x="116.47" y="119.31" width="17.01" height="25.51"/>
        <rect class="cls-1" x="377.26" y="119.31" width="17.01" height="25.51"/>
      </g>
    </g>
  </g>
</svg>